<?xml version="1.0" encoding="utf-8"?>
<!-- Generator: Adobe Illustrator 17.0.0, SVG Export Plug-In . SVG Version: 6.00 Build 0)  -->
<!DOCTYPE svg PUBLIC "-//W3C//DTD SVG 1.1//EN" "http://www.w3.org/Graphics/SVG/1.1/DTD/svg11.dtd">
<svg version="1.1" id="Layer_1" xmlns="http://www.w3.org/2000/svg" xmlns:xlink="http://www.w3.org/1999/xlink" x="0px" y="0px"
	 width="133.019px" height="40.789px" viewBox="0 0 133.019 40.789" enable-background="new 0 0 133.019 40.789"
	 xml:space="preserve">
<g>
	<g>
		<g>
			<path fill="#96958F" d="M65.267,0.648c-0.054,0.216-0.18,0.63-0.486,0.63c-0.684,0-1.278-1.008-2.988-1.008
				c-3.276,0-3.87,2.952-3.87,4.104c0,3.852,5.238,2.34,5.238,5.724c0,0.558-0.342,3.132-3.42,3.132
				c-1.854,0-3.258-1.242-3.258-2.916c0-0.54,0.09-1.08,0.234-1.602L56.43,8.658l-1.242,4.518l0.27,0.054
				c0.18-0.342,0.342-0.792,0.738-0.792c0.774,0,1.566,1.08,3.384,1.08c3.528,0,4.662-2.844,4.662-4.5
				c0-4.104-5.562-2.988-5.562-5.796c0-1.584,1.35-2.664,2.934-2.664c1.764,0,2.808,0.936,2.808,2.538
				c0,0.468-0.09,0.918-0.18,1.368l0.288,0.072l1.026-3.78L65.267,0.648z M69.803,5.454c-2.664,0-4.68,2.592-4.68,4.842
				c0,1.746,0.936,3.15,2.916,3.15c2.16,0,4.518-2.178,4.518-5.094C72.557,6.534,71.063,5.454,69.803,5.454z M69.821,12.078
				c-0.162,0.252-0.72,1.08-1.836,1.08c-1.026,0-1.566-0.702-1.566-1.566c0-0.846,0.972-3.96,1.35-4.608
				c0.396-0.684,1.008-1.242,1.926-1.242c1.026,0,1.566,0.558,1.566,1.44C71.261,8.226,70.289,11.286,69.821,12.078z M74.592,12.906
				c-0.306,0-0.432-0.252-0.432-0.468s0.108-0.504,0.216-0.864L77.831,0c-0.576,0.342-1.296,0.45-1.998,0.45h-0.81l-0.072,0.288
				h1.224l-2.988,10.008c-0.198,0.648-0.324,1.062-0.324,1.386c0,0.882,0.666,1.206,1.242,1.206c1.404,0,2.466-1.44,2.7-1.836
				l-0.216-0.144C76.373,11.682,75.546,12.906,74.592,12.906z"/>
		</g>
	</g>
	<g>
		<g>
			<path fill="#504F4A" d="M10.171,39.89H6.78l5.61-20.041h2.19l0.15-0.54H5.7l-0.15,0.54h2.37L2.34,39.89H0.15L0,40.43h17.761
				l2.31-8.161l-0.45-0.09C18.211,37.129,14.671,39.89,10.171,39.89z M27.36,24.409c1.14,0,2.07-0.93,2.07-2.07
				c0-1.14-0.93-2.07-2.07-2.07c-1.14,0-2.07,0.93-2.07,2.07C25.29,23.479,26.22,24.409,27.36,24.409z M27.96,26.749
				c-0.6,0.42-1.32,0.66-2.76,0.66h-3.09l-0.12,0.54h1.86l-2.67,8.581c-0.18,0.6-0.36,1.29-0.36,1.77c0,0.24,0,2.49,2.76,2.49
				c1.95,0,3.33-1.8,4.17-3.27l-0.42-0.24c-0.33,0.66-1.59,2.43-2.55,2.43c-0.3,0-0.54-0.12-0.54-0.63c0-0.27,0.27-0.99,0.45-1.62
				L27.96,26.749z M36.51,27.049c-3.81-0.12-8.07,4.8-8.07,8.79c0,2.64,1.65,4.95,4.89,4.95c2.43,0,4.35-1.17,5.61-3.12l-0.39-0.21
				c-1.05,1.59-2.76,2.79-4.62,2.79c-1.14,0-1.89-0.78-1.89-2.01c0-1.29,0.27-2.64,0.63-4.02c0.54,0.18,1.44,0.24,1.77,0.24
				c2.7,0,5.79-1.2,5.79-4.32C40.23,28.129,38.25,27.049,36.51,27.049z M36.42,32.149c-0.45,1.17-1.02,1.95-2.34,1.95
				c-0.42,0-0.96-0.12-1.26-0.3c1.23-4.2,2.13-6.39,3.54-6.39c0.45,0,0.99,0.33,0.99,1.23C37.35,29.659,36.9,30.919,36.42,32.149z
				 M50.25,27.049c-1.86,0-3.39,1.26-4.38,2.67l-0.06-0.03l3.36-11.311c-0.6,0.48-1.41,0.93-4.29,0.93h-1.62l-0.12,0.54h1.8
				l-3.36,11.521c-0.51,1.71-0.96,3.48-0.96,4.83c0,1.86,1.83,4.59,5.01,4.59c4.86,0,8.851-4.2,8.851-9.18
				C54.48,29.089,53.13,27.049,50.25,27.049z M49.59,35.629c-1.38,3.78-2.43,4.62-4.08,4.62c-0.81,0-1.83-0.57-1.83-2.43
				c0-0.42,0.12-0.99,0.27-1.59c0.33-1.32,0.87-3.42,1.29-4.59c0.78-2.1,3.12-4.05,4.47-4.05c0.6,0,1.35,0.45,1.35,1.44
				C51.06,30.439,50.67,32.689,49.59,35.629z M60.84,34.459c2.7,0,5.79-1.2,5.79-4.32c0-2.01-1.98-3.09-3.72-3.09
				c-3.81-0.12-8.07,4.8-8.07,8.79c0,2.64,1.65,4.95,4.89,4.95c2.43,0,4.35-1.17,5.61-3.12l-0.39-0.21
				c-1.05,1.59-2.76,2.79-4.62,2.79c-1.14,0-1.89-0.78-1.89-2.01c0-1.29,0.27-2.64,0.63-4.02
				C59.609,34.399,60.51,34.459,60.84,34.459z M62.76,27.409c0.45,0,0.99,0.33,0.99,1.23c0,1.02-0.45,2.28-0.93,3.51
				c-0.45,1.17-1.02,1.95-2.34,1.95c-0.42,0-0.96-0.12-1.26-0.3C60.45,29.599,61.35,27.409,62.76,27.409z M75.719,28.309
				c-0.51,0.09-1.29,0.51-1.29,1.65c0,0.99,0.66,1.77,1.65,1.77c1.2,0,1.77-0.9,1.77-2.04c0-1.95-2.49-2.64-3.99-2.64
				c-2.88,0-5.49,2.01-5.49,4.89c0,3.69,5.16,3.42,5.16,6c0,1.92-1.5,2.49-3.09,2.49c-1.65,0-3.15-0.96-3.15-1.23
				c0-0.15,0.21-0.21,0.51-0.21c0.72-0.06,1.59-0.48,1.59-1.77c0-0.99-0.72-1.83-1.77-1.83c-1.17,0-1.83,0.87-1.83,2.1
				c0,2.04,2.64,3.3,4.59,3.3c2.73,0,6.03-1.35,6.03-4.41c0-4.56-5.52-3.78-5.52-6.69c0-1.62,1.74-2.28,2.94-2.28
				c1.11,0,2.22,0.51,2.22,0.69C76.049,28.219,75.869,28.279,75.719,28.309z M90.629,30.469c0.93,0,1.86-0.78,1.86-1.89
				c0-1.11-0.72-2.01-1.95-2.01c-3.99,0-2.58,5.67-5.61,5.67h-1.47l4.2-13.861c-0.6,0.48-1.41,0.93-4.29,0.93h-1.62l-0.12,0.54h1.8
				l-6.12,20.581h3.72l2.28-7.591c0.27-0.06,0.48-0.06,0.72-0.06c0.81,0,1.02,0.18,1.05,3.54c0.03,3.99,1.5,4.47,3.15,4.47
				c1.95,0,3.24-1.56,3.81-3.51l-0.42-0.12c-0.24,0.75-1.02,2.37-2.07,2.37c-0.6,0-0.96-0.27-1.05-3.45
				c-0.03-1.89-0.66-2.49-2.64-3.45v-0.06c1.68-0.33,1.89-4.38,2.88-4.38c0.18,0,0.3,0.12,0.3,0.3c0,0.18-0.15,0.36-0.15,0.69
				C88.889,30.079,89.909,30.469,90.629,30.469z M99.869,24.409c1.14,0,2.07-0.93,2.07-2.07c0-1.14-0.93-2.07-2.07-2.07
				c-1.14,0-2.07,0.93-2.07,2.07C97.799,23.479,98.729,24.409,99.869,24.409z M97.289,39.709c-0.3,0-0.54-0.12-0.54-0.63
				c0-0.27,0.27-0.99,0.45-1.62l3.27-10.711c-0.6,0.42-1.32,0.66-2.76,0.66h-3.09l-0.12,0.54h1.86l-2.67,8.581
				c-0.18,0.6-0.36,1.29-0.36,1.77c0,0.24,0,2.49,2.76,2.49c1.95,0,3.33-1.8,4.17-3.27l-0.42-0.24
				C99.509,37.939,98.249,39.709,97.289,39.709z M112.589,39.709c-0.3,0-0.54-0.12-0.54-0.63c0-0.27,0.24-0.99,0.45-1.62l1.35-3.81
				c0.51-1.47,1.14-3.18,1.14-4.08c0-1.53-0.99-2.52-2.79-2.52c-2.28,0-3.93,2.04-5.16,3.54l-0.06-0.03l1.23-3.81
				c-0.6,0.42-1.32,0.66-2.76,0.66h-3.09l-0.12,0.54h1.74l-3.6,12.481h3.84l2.25-7.8c0.42-1.44,3.21-4.86,4.65-4.86
				c0.27,0,0.63,0.06,0.63,0.45c0,0.39-0.15,0.78-0.33,1.32l-2.37,7.021c-0.15,0.48-0.42,1.14-0.42,1.71c0,1.35,0.9,2.52,2.49,2.52
				c2.22,0,3.6-1.8,4.44-3.27l-0.42-0.24C114.809,37.939,113.549,39.709,112.589,39.709z M127.469,39.709
				c-0.3,0-0.54-0.12-0.54-0.63c0-0.27,0.27-0.99,0.45-1.62l5.64-19.081c-0.6,0.48-1.41,0.93-4.29,0.93h-1.62l-0.12,0.54h1.8
				l-2.73,9.421h-0.06c-0.18-1.44-0.96-2.22-2.49-2.22c-4.62,0-7.68,5.52-7.68,9c0,2.7,1.29,4.74,3.63,4.74
				c1.98,0,3.57-1.83,4.17-3.06h0.06c0,1.71,0.81,3.06,2.31,3.06c2.22,0,3.6-1.8,4.44-3.27l-0.42-0.24
				C129.689,37.939,128.429,39.709,127.469,39.709z M123.719,36.499c-1.08,2.73-2.82,3.75-3.81,3.75c-0.48,0-1.02-0.27-1.02-1.14
				c0-0.51,0.6-3.15,1.08-4.59l0.93-2.73c1.32-3.84,2.1-4.2,3.06-4.2c0.75,0,1.68,0.51,1.68,2.28
				C125.639,31.129,124.739,33.949,123.719,36.499z"/>
		</g>
	</g>
</g>
</svg>
